<?xml version="1.0" encoding="UTF-8"?><svg id="Layer_2" xmlns="http://www.w3.org/2000/svg" viewBox="0 0 392.96 395"><defs><style>.cls-1{fill:#45bdff;}</style></defs><g id="Misc"><path class="cls-1" d="M196.51,310c-62.03,0-112.5-50.47-112.5-112.5s50.47-112.5,112.5-112.5,112.5,50.47,112.5,112.5-50.47,112.5-112.5,112.5ZM196.51,108c-49.35,0-89.5,40.15-89.5,89.5s40.15,89.5,89.5,89.5,89.5-40.15,89.5-89.5-40.15-89.5-89.5-89.5Z"/><path d="M196.51,85.5c29.92,0,58.04,11.65,79.2,32.8s32.8,49.28,32.8,79.2-11.65,58.04-32.8,79.2c-21.15,21.15-49.28,32.8-79.2,32.8s-58.04-11.65-79.2-32.8c-21.15-21.15-32.8-49.28-32.8-79.2s11.65-58.04,32.8-79.2c21.15-21.15,49.28-32.8,79.2-32.8M196.51,287.5c49.63,0,90-40.37,90-90s-40.37-90-90-90-90,40.37-90,90,40.37,90,90,90M196.51,84.5c-62.41,0-113,50.59-113,113s50.59,113,113,113,113-50.59,113-113-50.59-113-113-113h0ZM196.51,286.5c-49.15,0-89-39.85-89-89s39.85-89,89-89,89,39.85,89,89-39.85,89-89,89h0Z"/><path class="cls-1" d="M196.51,394c-11.38,0-22.75-.98-33.81-2.9.49-6.54.99-13.08,1.49-19.61.51-6.69,1.02-13.38,1.53-20.06l.03-.45-.44-.08-.5-.1-.49-.11c-9.95-2.07-19.74-5.15-29.12-9.15-.17-.07-.32-.13-.48-.2l-.18-.08c-.09-.04-.19-.08-.28-.12l-.44-.22-18.36,35.66c-20.79-9.43-39.66-22.32-56.08-38.32,7.86-10.82,15.71-21.65,23.56-32.47l.25-.34-.3-.3c-.14-.14-.24-.24-.33-.35l-.37-.4c-7.42-7.93-14.02-16.64-19.62-25.9-.08-.13-.15-.24-.21-.34l-.56-.93-.41.21c-11.83,5.87-23.66,11.74-35.49,17.62-11.34-19.77-19.06-41.17-22.95-63.62,8.21-2.61,16.41-5.23,24.62-7.85l13.93-4.44-.05-.41-.14-1.03c-.85-6.66-1.29-13.44-1.29-20.18,0-4.28.18-8.61.53-12.87.01-.17.02-.33.04-.49l.04-.55.03-.45-39.55-6.43c2.38-22.68,8.64-44.55,18.59-65.02l38.54,12.48.44-.83c.08-.16.16-.29.24-.43,4.99-9.2,10.95-17.94,17.72-26.01.11-.14.21-.26.33-.4l.64-.75-29.02-27.57c12.26-14.02,26.43-26.22,42.12-36.26,3.32-2.13,6.77-4.19,10.25-6.13l24.84,32.08s1.14-.57,1.29-.64c12-5.95,24.71-10.33,37.8-13.02.23-.04.37-.07.51-.1l.92-.16-3.06-40.12c10.9-1.87,22.1-2.82,33.29-2.82s22.38.95,33.29,2.82l-3.06,40.12.94.17c.12.03.26.06.4.08,13.13,2.7,25.79,7.05,37.72,12.96.11.05,1.29.64,1.29.64l.25-.33c4.47-5.78,8.95-11.57,13.43-17.35l11.16-14.41c3.55,1.98,7.05,4.07,10.42,6.23,15.6,9.98,29.72,22.14,42,36.14-4.72,4.49-29.04,27.59-29.04,27.59l.33.36c.11.12.22.25.32.37l.33.39c6.79,8.06,12.77,16.83,17.78,26.05l.11.2c.04.08.08.15.12.23.09.15.14.26.2.37l.26.49,38.53-12.48c9.98,20.48,16.24,42.37,18.62,65.05l-39.54,6.42.07.97c.02.19.03.35.04.52.35,4.29.53,8.62.53,12.91,0,6.79-.44,13.6-1.3,20.25l-.07.52c-.02.19-.04.34-.07.48l-.07.43,38.58,12.3c-3.89,22.4-11.63,43.83-23,63.64-11.83-5.88-23.67-11.76-35.5-17.63l-.44-.22-.23.43c-.08.14-.16.29-.25.43l-.27.44c-5.65,9.31-12.28,18.04-19.71,25.94-.11.13-.22.25-.33.35-.14.17-.25.28-.37.39l-.3.3.25.34c7.85,10.82,15.7,21.65,23.56,32.46-16.43,15.99-35.32,28.86-56.14,38.28l-18.35-35.63-.43.19c-.16.07-.31.14-.45.19-.18.08-.32.15-.47.2-9.33,3.96-19.06,7.02-28.95,9.08l-1,.21-.44.08.03.45c.5,6.69,1.02,13.38,1.53,20.06.5,6.54,1,13.07,1.49,19.61-11.06,1.93-22.43,2.9-33.81,2.9ZM196.51,68c-71.41,0-129.5,58.09-129.5,129.5s58.09,129.5,129.5,129.5,129.5-58.09,129.5-129.5-58.09-129.5-129.5-129.5Z"/><path d="M196.51,1.5c11.01,0,22.02.92,32.75,2.73-.32,4.18-.64,8.37-.96,12.56-.37,4.88-.74,9.75-1.11,14.63-.16,2.05-.31,4.1-.47,6.16-.15,1.95-.3,3.91-.45,5.86l-.02.91.89.16.4.07c.16.04.32.07.47.1h.06c13,2.69,25.62,7.02,37.53,12.92.09.04.18.09.27.13l.19.1c.14.06.28.14.45.22l.74.37.5-.65c4.41-5.71,8.84-11.42,13.26-17.13l6.6-8.52c.84-1.09,1.69-2.19,2.54-3.28.64-.83,1.29-1.66,1.93-2.49,3.41,1.91,6.78,3.93,10.02,6,15.42,9.87,29.41,21.87,41.57,35.68-4.58,4.35-9.16,8.7-13.74,13.06-4.86,4.62-9.73,9.24-14.59,13.86l-.72.68.67.72c.11.12.21.24.31.36l.33.39c6.77,8.04,12.73,16.78,17.71,25.93.04.08.08.16.12.23.04.07.07.14.11.2l.02.05.03.04c.06.09.11.19.16.29l.07.13.39.74.8-.26,18.98-6.15,18.73-6.07c9.77,20.18,15.94,41.71,18.34,64.03l-38.63,6.27-.89.14.05.9c0,.09.01.19.02.29,0,.08.01.16.02.23v.03s0,.03,0,.03c.02.15.03.3.04.48.35,4.26.53,8.59.53,12.86,0,6.76-.43,13.55-1.29,20.19,0,.08-.02.16-.03.24-.01.1-.03.19-.04.29-.02.15-.03.3-.06.44l-.15.86.83.27,19.14,6.1,18.6,5.93c-3.89,22.08-11.5,43.14-22.63,62.64-11.69-5.81-23.39-11.62-35.08-17.42l-.87-.43-.46.86c-.07.13-.15.27-.24.41l-.13.2-.14.23c-5.64,9.29-12.24,17.99-19.64,25.86l-.02.02-.02.02c-.08.1-.18.2-.28.29l-.05.04-.04.05c-.09.11-.19.22-.29.32l-.6.6.5.69c7.76,10.71,15.53,21.41,23.3,32.11-16.2,15.69-34.79,28.37-55.26,37.68l-8.74-16.97-9.18-17.82-.43-.83-.86.38c-.14.06-.28.13-.43.18h-.04s-.04.03-.04.03c-.13.06-.26.12-.44.19-9.28,3.94-18.98,6.98-28.86,9.05-.08.02-.15.03-.23.05-.09.02-.19.04-.24.05-.08.01-.16.03-.24.05-.08.02-.17.04-.25.05l-.89.16.07.9c.5,6.68,1.01,13.36,1.52,20.04.49,6.39.98,12.79,1.46,19.18-10.89,1.87-22.08,2.82-33.27,2.82s-22.38-.95-33.27-2.82c.48-6.39.97-12.77,1.46-19.16.51-6.69,1.02-13.38,1.53-20.07l.07-.9-.89-.16c-.08-.02-.17-.03-.25-.05-.08-.02-.16-.03-.19-.04-.09-.02-.19-.04-.28-.06-.08-.02-.15-.03-.25-.05-9.91-2.06-19.67-5.13-29.05-9.14-.14-.05-.29-.12-.43-.18l-.18-.08c-.09-.04-.17-.07-.26-.11l-.88-.44-.45.88c-3.05,5.93-6.1,11.85-9.15,17.78-2.92,5.67-5.84,11.35-8.76,17.02-20.44-9.32-39-22.01-55.2-37.73,7.77-10.71,15.54-21.41,23.3-32.12l.5-.69-.6-.6c-.11-.11-.21-.21-.33-.35-.06-.07-.13-.14-.19-.2l-.17-.18c-7.39-7.9-13.97-16.59-19.58-25.85-.07-.1-.12-.2-.18-.3l-.06-.1-.14-.23-.13-.21-.47-.79-.83.41-.27.13c-11.6,5.76-23.2,11.51-34.8,17.28-11.11-19.48-18.7-40.53-22.58-62.62,7.93-2.52,15.85-5.05,23.78-7.58l13.96-4.45.79-.25-.1-.82c-.01-.09-.02-.19-.04-.28-.01-.08-.02-.15-.03-.23-.01-.09-.02-.19-.04-.29-.01-.08-.02-.16-.03-.24-.85-6.63-1.28-13.4-1.28-20.11,0-4.26.18-8.58.53-12.85,0-.15.02-.3.03-.45v-.03s0-.03,0-.03c0-.08.01-.16.02-.23,0-.1.02-.19.02-.29l.05-.9-.89-.14c-6.55-1.06-13.1-2.13-19.65-3.19-6.33-1.03-12.66-2.06-18.99-3.09,2.4-22.31,8.55-43.83,18.31-64l10.99,3.56,26.74,8.66.8.26.39-.74.13-.24.11-.22c.07-.14.14-.27.25-.44,4.96-9.14,10.9-17.86,17.68-25.94.09-.12.19-.23.3-.36l.33-.39.61-.72-.69-.65c-4.83-4.58-9.65-9.17-14.48-13.75-4.62-4.39-9.24-8.78-13.86-13.16,12.16-13.84,26.18-25.88,41.69-35.8,3.21-2.06,6.52-4.04,9.85-5.91l2.16,2.79,2.24,2.89c3.31,4.28,6.62,8.55,9.93,12.82,3.33,4.3,6.67,8.6,10,12.91l.5.65.74-.37.16-.08c.09-.05.18-.09.3-.15.15-.08.3-.15.47-.23,11.95-5.93,24.62-10.29,37.65-12.97h.07c.15-.04.31-.07.43-.1l.49-.09.89-.16-.07-.9c-.15-1.94-.3-3.88-.45-5.82-.16-2.07-.31-4.13-.47-6.2-.37-4.87-.74-9.74-1.11-14.61-.32-4.19-.64-8.39-.96-12.58,10.73-1.81,21.75-2.73,32.75-2.73M196.51,327.5c71.68,0,130-58.32,130-130s-58.32-130-130-130S66.51,125.82,66.51,197.5s58.32,130,130,130M196.51.5c-11.53,0-22.83.99-33.82,2.9.71,9.36,1.43,18.73,2.14,28.1.31,4,.61,8.01.92,12.02-.17.03-.34.06-.5.09-.17.04-.34.07-.5.1-13.33,2.74-26.04,7.17-37.91,13.06-.15.07-.31.15-.47.23-.15.07-.3.15-.46.23-6.64-8.58-13.29-17.15-19.93-25.73-1.64-2.12-3.28-4.24-4.92-6.36-3.62,2.01-7.17,4.13-10.65,6.36-15.88,10.16-30.21,22.54-42.54,36.71,9.68,9.19,19.35,18.39,29.03,27.58-.11.13-.22.26-.33.39-.12.14-.23.27-.33.4-6.76,8.05-12.73,16.78-17.77,26.07-.09.15-.17.3-.25.45-.08.15-.16.31-.24.46-12.85-4.16-25.7-8.32-38.55-12.48C9.5,131.38,2.96,153.64.55,177.13c13.19,2.14,26.38,4.29,39.57,6.43-.01.17-.03.35-.04.52-.02.17-.03.34-.04.51-.35,4.26-.53,8.56-.53,12.91,0,6.86.44,13.61,1.29,20.24.02.17.05.35.07.52.02.17.05.34.07.51-12.86,4.1-25.71,8.21-38.57,12.3,3.97,23.18,11.99,44.97,23.32,64.62,11.97-5.95,23.94-11.89,35.91-17.83.09.15.18.29.27.44.09.15.17.29.27.44,5.65,9.34,12.26,18.05,19.68,25.98.12.13.24.25.36.38.11.13.23.25.36.38-7.93,10.94-15.87,21.88-23.81,32.82,16.45,16.1,35.7,29.34,56.97,38.92,6.12-11.88,12.23-23.76,18.35-35.64.16.08.32.14.48.21.16.07.32.14.48.2,9.3,3.97,19.07,7.07,29.2,9.18.17.04.34.07.51.11.16.03.33.07.5.1-1.01,13.38-2.04,26.75-3.05,40.13,11.15,1.97,22.63,2.99,34.34,2.99s23.19-1.02,34.34-2.99c-1.01-13.38-2.04-26.75-3.05-40.13.17-.03.34-.07.5-.1.17-.04.34-.07.51-.11,10.06-2.1,19.77-5.17,29.02-9.1.16-.06.32-.13.47-.2.16-.06.32-.13.48-.2,6.12,11.88,12.23,23.75,18.35,35.63,21.28-9.56,40.56-22.78,57.03-38.87-7.94-10.93-15.88-21.87-23.81-32.81.12-.12.24-.25.35-.38.13-.12.25-.25.36-.38,7.46-7.94,14.09-16.67,19.77-26.03.09-.15.18-.29.27-.44.09-.15.18-.3.26-.45,11.97,5.94,23.95,11.89,35.92,17.84,11.34-19.65,19.38-41.45,23.36-64.63h0c-12.86-4.11-25.71-8.21-38.57-12.31.03-.17.05-.34.07-.51s.05-.35.07-.52c.86-6.65,1.3-13.43,1.3-20.31,0-4.36-.18-8.67-.53-12.94-.01-.18-.02-.35-.04-.52-.01-.17-.03-.35-.04-.52,13.18-2.14,26.37-4.28,39.56-6.42h0c-2.41-23.51-8.96-45.77-18.91-66.08-12.85,4.16-25.69,8.32-38.54,12.48-.08-.15-.16-.31-.25-.46-.07-.15-.16-.3-.24-.46-5.07-9.32-11.06-18.07-17.84-26.13l-.33-.39c-.11-.13-.22-.26-.34-.39,9.68-9.19,19.35-18.39,29.03-27.58-12.31-14.11-26.59-26.46-42.42-36.59-3.53-2.26-7.14-4.41-10.82-6.45-1.66,2.15-3.33,4.3-4.99,6.45-6.62,8.55-13.25,17.1-19.86,25.65-.16-.08-.32-.16-.47-.23-.16-.08-.31-.16-.46-.23-11.82-5.85-24.48-10.25-37.75-12.98-.16-.03-.33-.06-.5-.1-.16-.03-.33-.06-.5-.09.31-4.01.61-8.02.92-12.02.71-9.37,1.43-18.74,2.14-28.1-10.99-1.91-22.29-2.9-33.82-2.9h0ZM196.51,326.5c-71.24,0-129-57.76-129-129S125.27,68.5,196.51,68.5s129,57.76,129,129-57.76,129-129,129h0Z"/></g></svg>