<?xml version="1.0" encoding="UTF-8"?><svg id="Layer_2" xmlns="http://www.w3.org/2000/svg" viewBox="0 0 484.29 678"><defs><style>.cls-1{fill:#ff4545;}.cls-2{fill:#45bdff;}.cls-3{fill:#db45ff;stroke:#1a1a1a;stroke-width:1.37px;}.cls-3,.cls-4,.cls-5{stroke-miterlimit:10;}.cls-6{fill:#f2f2f2;}.cls-7,.cls-5{fill:#ff4390;}.cls-4{fill:#45ff52;stroke-width:1.32px;}.cls-4,.cls-5{stroke:#000;}.cls-8{fill:#1a1a1a;}</style></defs><g id="Misc"><rect class="cls-6" x=".5" y=".5" width="483.29" height="677" rx="26.78" ry="26.78"/><path d="M457,1c14.49,0,26.28,11.79,26.28,26.28v623.44c0,14.49-11.79,26.28-26.28,26.28H27.28c-14.49,0-26.28-11.79-26.28-26.28V27.28C1,12.79,12.79,1,27.28,1h429.72M457,0H27.28C12.21,0,0,12.21,0,27.28v623.44c0,15.07,12.21,27.28,27.28,27.28h429.72c15.07,0,27.28-12.21,27.28-27.28V27.28c0-15.07-12.21-27.28-27.28-27.28h0Z"/><rect class="cls-8" x="60.24" y="42.69" width="367.32" height="514.24" rx="27.28" ry="27.28"/><path class="cls-7" d="M233.24,433.08c-31.62-2.5-61.4-16.26-83.9-38.78-22.5-22.52-36.23-52.32-38.7-83.95h12.11c5.06,59.08,51.42,105.49,110.49,110.61v12.12ZM254.88,420.94c58.9-5.27,105.13-51.67,110.18-110.59h12.11c-2.46,31.58-16.16,61.33-38.6,83.84-22.43,22.5-52.14,36.29-83.69,38.85v-12.11ZM365.01,288.71c-5.3-58.62-51.51-104.78-110.13-110.02v-12.11c31.46,2.56,61.1,16.27,83.51,38.66,22.41,22.39,36.15,52.01,38.74,83.47h-12.11ZM110.68,288.71c2.59-31.51,16.37-61.17,38.84-83.57,22.47-22.4,52.18-36.09,83.71-38.59v12.12c-58.79,5.1-105.13,51.27-110.44,110.04h-12.11Z"/><path d="M232.74,167.1v11.12c-58.66,5.31-104.88,51.36-110.4,110h-11.11c2.69-31.19,16.39-60.52,38.65-82.71,22.26-22.19,51.65-35.8,82.86-38.4M255.38,167.13c31.14,2.66,60.46,16.3,82.65,38.47,22.2,22.17,35.86,51.48,38.55,82.61h-11.12c-5.5-58.49-51.59-104.53-110.09-109.97v-11.11M376.63,310.85c-2.57,31.26-16.18,60.69-38.41,82.99-22.22,22.29-51.6,35.99-82.84,38.66v-11.11c58.77-5.47,104.88-51.75,110.14-110.54h11.11M122.29,310.85c5.27,58.95,51.51,105.24,110.45,110.56v11.12c-31.31-2.6-60.76-16.28-83.05-38.59-22.29-22.31-35.94-51.78-38.51-83.09h11.11M233.74,166.01c-65.86,4.93-118.45,57.39-123.59,123.19h13.11c5.08-58.58,51.85-105.21,110.49-110.08v-13.11h0ZM254.38,166.04v13.11c58.49,5.01,105.11,51.59,110.18,110.06h13.11c-5.14-65.7-57.58-118.1-123.29-123.17h0ZM377.71,309.85h-13.11c-4.82,58.74-51.54,105.6-110.22,110.63v13.11c65.9-5.09,118.45-57.78,123.33-123.74h0ZM123.2,309.85h-13.11c4.88,66.06,57.59,118.81,123.64,123.76v-13.11c-58.83-4.88-105.71-51.81-110.53-110.65h0Z"/><path class="cls-7" d="M233.24,404.58c-49.71-5-89.17-44.5-94.11-94.22h14.56c4.79,41.42,38.14,74.81,79.54,79.66v14.57ZM254.88,389.97c41.24-4.97,74.46-38.35,79.24-79.62h14.56c-4.93,49.57-44.25,89.06-93.8,94.19v-14.57ZM334.05,288.71c-5.08-41.63-37.54-74.04-79.17-79.05v-14.57c49.28,5.1,88.58,44.35,93.74,93.62h-14.57ZM139.19,288.71c5.17-49.42,44.6-88.68,94.05-93.66v14.57c-41.13,4.82-74.46,37.97-79.48,79.09h-14.57Z"/><path d="M232.74,195.61v13.57c-41.01,5.01-74.21,38.04-79.42,79.03h-13.57c5.36-48.74,44.22-87.44,92.99-92.6M255.38,195.64c48.61,5.29,87.33,43.97,92.68,92.57h-13.57c-5.26-41.5-37.61-73.8-79.11-79v-13.57M348.12,310.85c-5.12,48.9-43.88,87.81-92.74,93.13v-13.57c41.12-5.17,74.21-38.42,79.18-79.56h13.56M153.25,310.85c4.99,41.29,38.21,74.56,79.49,79.6v13.57c-49.04-5.19-87.92-44.12-93.05-93.17h13.56M233.74,194.5c-50.17,4.78-90.12,44.6-95.1,94.71h15.57c4.86-41.55,37.93-74.48,79.53-79.14v-15.57h0ZM254.38,194.53v15.57c41.46,4.79,74.37,37.66,79.22,79.11h15.57c-4.97-50-44.77-89.76-94.79-94.67h0ZM349.23,309.85h-15.56c-4.61,41.71-37.64,74.86-79.29,79.68v15.57c50.21-4.94,90.11-44.97,94.85-95.24h0ZM154.14,309.85h-15.56c4.74,50.38,44.8,90.48,95.16,95.27v-15.57c-41.8-4.68-74.97-37.89-79.6-79.71h0Z"/><path class="cls-7" d="M233.24,375.99c-34.04-4.72-60.87-31.59-65.53-65.64h14.17c4.44,26.37,25,46.97,51.36,51.47v14.17ZM254.88,361.77c26.19-4.61,46.63-25.19,51.05-51.41h14.17c-4.64,33.9-31.34,60.76-65.22,65.6v-14.18ZM305.83,288.71c-4.62-25.92-25.02-46.28-50.95-50.85v-14.18c33.61,4.8,60.27,31.43,65.14,65.03h-14.18ZM167.79,288.71c4.88-33.75,31.68-60.39,65.45-65.07v14.17c-26.1,4.46-46.62,24.84-51.26,50.9h-14.19Z"/><path d="M232.74,224.22v13.17c-25.97,4.61-46.39,24.88-51.17,50.82h-13.19c5.04-33.07,31.28-59.15,64.37-63.99M255.38,224.26c32.93,4.96,59.04,31.03,64.06,63.95h-13.19c-4.77-25.8-25.06-46.05-50.87-50.76v-13.19M319.52,310.85c-4.81,33.22-30.95,59.52-64.14,64.52v-13.19c26.06-4.76,46.4-25.24,50.97-51.33h13.17M181.46,310.85c4.6,26.24,25.06,46.74,51.28,51.39v13.17c-33.36-4.88-59.63-31.2-64.45-64.56h13.17M233.74,223.07c-34.48,4.52-61.81,31.73-66.52,66.14h15.19c4.46-26.11,25.16-46.69,51.34-50.98v-15.17h0ZM254.38,223.11v15.18c26.03,4.4,46.58,24.91,51.03,50.92h15.18c-4.7-34.31-31.89-61.46-66.21-66.1h0ZM320.67,309.85h-15.17c-4.24,26.28-24.91,47.06-51.12,51.49v15.18c34.52-4.67,61.81-32.09,66.29-66.67h0ZM182.3,309.85h-15.17c4.49,34.68,31.93,62.16,66.6,66.71v-15.17c-26.37-4.32-47.17-25.16-51.43-51.54h0Z"/><path class="cls-7" d="M243.9,349.63c-27.47,0-49.82-22.35-49.82-49.82,0-23.34,16.43-43.72,39.15-48.67v10.33c0,.86.13,1.7.39,2.51-15.92,4.55-26.99,19.21-26.99,35.83,0,20.55,16.72,37.27,37.27,37.27s37.27-16.72,37.27-37.27c0-16.48-10.96-31.1-26.71-35.75.27-.83.41-1.7.41-2.59v-10.26c22.54,5.08,38.84,25.42,38.84,48.61,0,27.47-22.35,49.82-49.82,49.82Z"/><path d="M232.74,251.76v9.71c0,.74.09,1.47.27,2.17-15.88,4.77-26.88,19.49-26.88,36.17,0,20.83,16.94,37.77,37.77,37.77s37.77-16.94,37.77-37.77c0-16.53-10.88-31.22-26.59-36.09.19-.73.29-1.49.29-2.26v-9.63c10.41,2.49,19.85,8.4,26.68,16.73,7.19,8.78,11.16,19.87,11.16,31.24,0,27.19-22.12,49.32-49.32,49.32s-49.32-22.12-49.32-49.32c0-22.9,15.97-42.91,38.15-48.05M233.74,250.52c-22.91,4.7-40.15,24.98-40.15,49.29,0,27.79,22.53,50.32,50.32,50.32s50.32-22.53,50.32-50.32c0-24.2-17.08-44.4-39.84-49.23v10.88c0,1.03-.2,2.02-.57,2.92,15.5,4.33,26.86,18.55,26.86,35.42,0,20.31-16.46,36.77-36.77,36.77s-36.77-16.46-36.77-36.77c0-16.98,11.51-31.27,27.15-35.49-.35-.88-.54-1.84-.54-2.85v-10.95h0Z"/><path class="cls-7" d="M243.9,327.05c-15.02,0-27.24-12.22-27.24-27.24s12.22-27.24,27.24-27.24,27.24,12.22,27.24,27.24-12.22,27.24-27.24,27.24ZM243.9,288.35c-6.32,0-11.47,5.14-11.47,11.47s5.14,11.47,11.47,11.47,11.47-5.14,11.47-11.47-5.14-11.47-11.47-11.47Z"/><path d="M243.9,273.08c14.74,0,26.74,12,26.74,26.74s-12,26.74-26.74,26.74-26.74-12-26.74-26.74,12-26.74,26.74-26.74M243.9,311.78c6.6,0,11.97-5.37,11.97-11.97s-5.37-11.97-11.97-11.97-11.97,5.37-11.97,11.97,5.37,11.97,11.97,11.97M243.9,272.08c-15.32,0-27.74,12.42-27.74,27.74s12.42,27.74,27.74,27.74,27.74-12.42,27.74-27.74-12.42-27.74-27.74-27.74h0ZM243.9,310.78c-6.06,0-10.97-4.91-10.97-10.97s4.91-10.97,10.97-10.97,10.97,4.91,10.97,10.97-4.91,10.97-10.97,10.97h0Z"/><rect class="cls-5" x="236.32" y="358.24" width="15.48" height="176.76" rx="7.74" ry="7.74"/><rect class="cls-5" x="236.32" y="84.71" width="15.48" height="176.76" rx="7.74" ry="7.74"/><rect class="cls-5" x="343.72" y="251.47" width="15.48" height="96.12" rx="7.74" ry="7.74" transform="translate(51.93 651) rotate(-90)"/><rect class="cls-5" x="127.62" y="251.47" width="15.48" height="96.12" rx="7.74" ry="7.74" transform="translate(-164.17 434.89) rotate(-90)"/><path class="cls-4" d="M132.52,59.42c-5.01,0-34.43,46.16-34.43,65.18,0,17.54,13.12,32.02,30.08,34.15v22.67h8.69v-22.67c16.96-2.13,30.08-16.61,30.08-34.15,0-19.02-29.75-65.18-34.43-65.18ZM148.46,119.27l-14.94,14.94v25.49c0,.55-.45,1-1,1s-1-.45-1-1v-25.49l-14.94-14.94c-.39-.39-.39-1.03,0-1.42.2-.2.45-.29.71-.29s.51.1.71.29l13.52,13.52v-63.26c0-.55.45-1,1-1,.28,0,.53.11.71.29.18.18.29.43.29.71v63.26l13.52-13.52c.2-.2.45-.29.71-.29s.51.1.71.29c.39.39.39,1.03,0,1.42Z"/><path class="cls-2" d="M133.32,453.23c-17.26,0-31.24,13.99-31.24,31.24s13.99,31.24,31.24,31.24,31.24-13.99,31.24-31.24-13.99-31.24-31.24-31.24ZM133.32,509.08c-13.59,0-24.61-11.02-24.61-24.61s11.02-24.61,24.61-24.61,24.61,11.02,24.61,24.61-11.02,24.61-24.61,24.61Z"/><path class="cls-2" d="M187.5,478.83c-.67-6.5-2.48-12.65-5.23-18.27-3.55,1.15-7.1,2.3-10.66,3.45-.02-.04-.04-.09-.07-.13-.02-.04-.04-.08-.07-.13-1.4-2.58-3.06-5-4.93-7.22l-.09-.11s-.06-.07-.09-.11c2.68-2.54,5.35-5.08,8.03-7.63-3.4-3.9-7.35-7.32-11.73-10.12-.98-.62-1.97-1.22-2.99-1.78-.46.59-.92,1.19-1.38,1.78-1.83,2.36-3.66,4.73-5.49,7.09-.04-.02-.09-.04-.13-.06-.04-.02-.09-.04-.13-.06-3.27-1.62-6.77-2.83-10.44-3.59-.04,0-.09-.02-.14-.03-.04,0-.09-.02-.14-.02.09-1.11.17-2.22.25-3.32.2-2.59.4-5.18.59-7.77-3.04-.53-6.16-.8-9.35-.8s-6.31.27-9.35.8c.2,2.59.4,5.18.59,7.77.09,1.11.17,2.21.25,3.32-.05,0-.09.02-.14.02-.05.01-.09.02-.14.03-3.69.76-7.2,1.98-10.48,3.61-.04.02-.09.04-.13.06-.04.02-.08.04-.13.06-1.84-2.37-3.67-4.74-5.51-7.11-.45-.59-.91-1.17-1.36-1.76-1,.56-1.98,1.14-2.94,1.76-4.39,2.81-8.35,6.23-11.76,10.15,2.68,2.54,5.35,5.08,8.03,7.63-.03.04-.06.07-.09.11-.03.04-.06.07-.09.11-1.87,2.23-3.52,4.64-4.91,7.21-.02.04-.05.08-.07.12-.02.04-.04.09-.07.13-3.55-1.15-7.11-2.3-10.66-3.45-2.75,5.61-4.55,11.77-5.22,18.26,3.65.59,7.29,1.19,10.94,1.78,0,.05,0,.1-.01.14,0,.05,0,.09-.01.14-.1,1.18-.15,2.37-.15,3.57,0,1.9.12,3.76.36,5.6,0,.05.01.1.02.14,0,.05.01.09.02.14-3.56,1.13-7.11,2.27-10.66,3.4,1.1,6.41,3.32,12.43,6.45,17.87,3.31-1.65,6.62-3.29,9.93-4.93.02.04.05.08.07.12.02.04.05.08.07.12,1.56,2.58,3.39,4.99,5.44,7.18.03.04.07.07.1.11.03.04.06.07.1.11-2.19,3.02-4.39,6.05-6.58,9.07,4.55,4.45,9.87,8.11,15.75,10.76,1.69-3.28,3.38-6.57,5.07-9.85.04.02.09.04.13.06.04.02.09.04.13.06,2.57,1.1,5.27,1.95,8.07,2.54.05.01.09.02.14.03.04,0,.09.02.14.03-.28,3.7-.56,7.4-.84,11.1,3.08.54,6.26.83,9.49.83s6.41-.28,9.49-.83c-.28-3.7-.56-7.4-.84-11.1.05,0,.09-.02.14-.03.05-.01.09-.02.14-.03,2.78-.58,5.47-1.43,8.02-2.52.04-.02.09-.04.13-.06.04-.02.09-.04.13-.06,1.69,3.28,3.38,6.57,5.07,9.85,5.88-2.64,11.21-6.3,15.77-10.75-2.2-3.02-4.39-6.05-6.58-9.07.03-.03.07-.07.1-.11.04-.03.07-.07.1-.11,2.06-2.2,3.9-4.61,5.47-7.2.02-.04.05-.08.07-.12.02-.04.05-.08.07-.12,3.31,1.64,6.62,3.29,9.93,4.93,3.14-5.43,5.36-11.46,6.46-17.87h0c-3.56-1.14-7.11-2.27-10.66-3.4,0-.05.01-.09.02-.14s.01-.1.02-.14c.24-1.84.36-3.71.36-5.62,0-1.21-.05-2.4-.15-3.58,0-.05,0-.1-.01-.14,0-.05,0-.1-.01-.14,3.64-.59,7.29-1.18,10.94-1.78h0ZM133.32,520.14c-19.7,0-35.67-15.97-35.67-35.67s15.97-35.67,35.67-35.67,35.67,15.97,35.67,35.67-15.97,35.67-35.67,35.67Z"/><path class="cls-3" d="M322.07,459.04l-18.94-7.35c2.62-1.86,8.8-6.13,13.36-8.23.11-.05.23-.1.34-.15l5.23,15.73Z"/><path class="cls-3" d="M332.7,491.21c0,.13,0,.25-.04.37l-.64,2.74-8.48,36.07c-.18.77-.94,1.25-1.71,1.09-2.03-.42-4-1.12-5.84-2.11-4.09-2.18-8.95-5.56-12.51-10.31-6.17-8.22-7.77-21.47-7.31-31.75.35-7.9,3.54-24.16,4.99-31.27.18-.88,1.11-1.39,1.95-1.06l19.58,7.6c.4.16.72.49.85.9l9.08,27.31c.04.14.07.28.07.42h0Z"/><path class="cls-3" d="M403.23,473.74l-67.54,16.52-8.64-25.99-1.26-3.78-6.1-18.33c4.8-1.72,9.59-2.3,15.77-2.11,7.54.23,35.86,9.14,47.96,15.53,8.9,4.7,16.44,13.73,19.81,18.17Z"/><path class="cls-3" d="M335.36,493.5l1.29-.32,68.49-16.75c.29.68,2.26,5.4,2.48,11.11.23,6.17.69,23.98-.23,28.32s-5.25,6.17-6.4,7.08c-1.14.91-19.41,4.34-23.98,4.8-3.64.37-35.91,3.05-48.82,4.13-.62.05-1.25.08-1.87.08l8.28-35.21.76-3.23Z"/><path class="cls-1" d="M379.03,98.48c-3.54-26.15-16.58-42.71-32.13-42.71-18.27,0-33.08,22.85-33.08,57.28,0,16.61,3.45,29.74,9.07,38.88,6.21,15.16,21.12,25.84,38.51,25.84,22.98,0,41.6-18.62,41.6-41.6,0-16.67-9.81-31.06-23.97-37.69ZM361.4,172.94c-8.07,0-15.53-2.6-21.6-7.01-6.19-4.5-10.92-10.87-13.35-18.29-2.73-4.95-4.82-11.15-6.06-18.49-.83-4.91-1.28-10.34-1.28-16.26,0-31.2,12.44-51.9,27.78-51.9,12.43,0,22.95,13.59,26.5,35.34.28,1.73.52,3.51.71,5.34,1.92.71,3.77,1.57,5.53,2.58,11.07,6.34,18.53,18.26,18.53,31.93,0,20.31-16.46,36.77-36.77,36.77Z"/><path class="cls-1" d="M379.92,109.54c-1.69-1.18-3.51-2.21-5.42-3.05-1.58-.7-3.22-1.27-4.92-1.71-.13-1.55-.3-3.07-.51-4.56-.24-1.74-.53-3.43-.86-5.08-3.44-17.05-11.69-29.05-21.31-29.05-12.72,0-23.03,20.96-23.03,46.82,0,1.7.05,3.38.13,5.04h0c.2,3.91.65,7.68,1.3,11.24h0c1.1,6.03,2.79,11.47,4.94,16.04,1.72,5.96,5.11,11.21,9.62,15.22,3.06,2.72,6.64,4.87,10.57,6.28h0c3.42,1.23,7.12,1.9,10.97,1.9,17.92,0,32.44-14.52,32.44-32.44,0-11.03-5.51-20.78-13.92-26.64ZM370.08,141.68c-.84.31-1.75.47-2.7.47-.82,0-1.62-.13-2.36-.36-3.2-1-5.52-4-5.52-7.53,0-4.36,3.53-7.89,7.89-7.89.53,0,1.05.05,1.55.15,1.78.35,3.34,1.31,4.47,2.64,1.17,1.37,1.87,3.15,1.87,5.1,0,3.41-2.16,6.31-5.19,7.41Z"/><path class="cls-1" d="M372.21,134.27c0,.33-.03.66-.1.97,0,.01,0,.02,0,.03-.04.15-.07.29-.11.43,0,0,0,.01,0,.02,0,0,0,.01,0,.02s0,.01,0,.02,0,.01,0,.02h0c-.63,1.93-2.45,3.33-4.59,3.33-.46,0-.91-.07-1.34-.19-2.02-.58-3.5-2.44-3.5-4.64,0-2.67,2.17-4.83,4.83-4.83.36,0,.71.04,1.04.11,2.17.48,3.79,2.41,3.79,4.72Z"/><rect class="cls-8" x="84.76" y="575.64" width="315.76" height="75.15" rx="27.28" ry="27.28"/><path class="cls-5" d="M137.01,588.98h12.51c3.38,0,5.98.27,7.8.8,1.82.53,3.19,1.3,4.1,2.3.91,1,1.53,2.22,1.86,3.64s.49,3.63.49,6.62v4.16c0,3.05-.31,5.27-.94,6.67-.63,1.4-1.78,2.47-3.47,3.22s-3.88,1.12-6.59,1.12h-3.33v19.23h-12.42v-47.76ZM149.43,597.15v12.15c.35.02.66.03.91.03,1.14,0,1.93-.28,2.37-.84.44-.56.66-1.73.66-3.5v-3.92c0-1.63-.26-2.69-.77-3.19-.51-.49-1.57-.74-3.19-.74Z"/><path class="cls-5" d="M179.26,588.98v6.22h-12.27v-6.22h12.27ZM179.26,597.59v39.15h-12.27v-39.15h12.27Z"/><path class="cls-5" d="M209.2,597.59l-4.84,15.59,6.28,23.56h-11.46l-3.72-17.06v17.06h-11.93v-47.76h11.92v20.05s3.73-11.44,3.73-11.44h10.02Z"/><path class="cls-5" d="M239.38,611.34v9.59c0,3.52-.18,6.1-.53,7.74-.35,1.64-1.11,3.18-2.27,4.6-1.16,1.43-2.65,2.48-4.47,3.16-1.82.68-3.91,1.02-6.27,1.02-2.64,0-4.87-.29-6.7-.87-1.83-.58-3.25-1.46-4.26-2.63-1.01-1.17-1.74-2.59-2.17-4.25-.43-1.66-.65-4.15-.65-7.48v-10.03c0-3.64.39-6.48,1.18-8.53.79-2.04,2.2-3.69,4.25-4.93,2.04-1.24,4.66-1.86,7.85-1.86,2.67,0,4.97.4,6.89,1.19,1.92.8,3.4,1.83,4.44,3.11,1.04,1.28,1.76,2.6,2.14,3.95.38,1.36.58,3.42.58,6.2ZM227.46,608.39c0-2.01-.11-3.27-.32-3.79-.22-.52-.68-.78-1.39-.78s-1.18.26-1.42.78c-.24.52-.35,1.78-.35,3.79v17.67c0,1.85.12,3.05.35,3.61s.7.84,1.39.84,1.18-.26,1.4-.77c.23-.51.34-1.61.34-3.3v-18.05Z"/><path class="cls-5" d="M255.07,597.59l-.21,3.72c.92-1.48,2.03-2.59,3.3-3.32,1.28-.74,2.73-1.11,4.37-1.11,3.19,0,5.69,1.48,7.52,4.43,1-1.48,2.13-2.59,3.39-3.32,1.26-.74,2.66-1.11,4.19-1.11,2.03,0,3.7.49,5.03,1.48s2.18,2.19,2.55,3.61c.37,1.43.56,3.74.56,6.95v27.82h-11.56v-25.52c0-3.34-.11-5.41-.34-6.21-.23-.8-.75-1.19-1.58-1.19s-1.39.39-1.64,1.18c-.25.79-.37,2.86-.37,6.22v25.52h-11.56v-24.87c0-3.83-.09-6.14-.28-6.9-.19-.77-.7-1.15-1.55-1.15-.53,0-.98.2-1.36.6-.37.4-.58.9-.62,1.48-.04.58-.06,1.81-.06,3.7v27.14h-11.56v-39.15h11.77Z"/><path class="cls-5" d="M316.85,611.34v9.59c0,3.52-.18,6.1-.53,7.74-.35,1.64-1.11,3.18-2.27,4.6-1.16,1.43-2.65,2.48-4.47,3.16-1.82.68-3.91,1.02-6.27,1.02-2.64,0-4.87-.29-6.7-.87-1.83-.58-3.25-1.46-4.26-2.63-1.01-1.17-1.74-2.59-2.17-4.25-.43-1.66-.65-4.15-.65-7.48v-10.03c0-3.64.39-6.48,1.18-8.53.79-2.04,2.2-3.69,4.25-4.93,2.04-1.24,4.66-1.86,7.85-1.86,2.67,0,4.97.4,6.89,1.19,1.92.8,3.4,1.83,4.44,3.11,1.04,1.28,1.76,2.6,2.14,3.95.38,1.36.58,3.42.58,6.2ZM304.93,608.39c0-2.01-.11-3.27-.32-3.79-.22-.52-.68-.78-1.39-.78s-1.18.26-1.42.78c-.24.52-.35,1.78-.35,3.79v17.67c0,1.85.12,3.05.35,3.61s.7.84,1.39.84,1.18-.26,1.4-.77c.23-.51.34-1.61.34-3.3v-18.05Z"/><path class="cls-5" d="M332.9,597.59l-.21,3.61c.86-1.44,1.92-2.52,3.17-3.24,1.25-.72,2.69-1.08,4.32-1.08,2.05,0,3.72.48,5.02,1.45,1.3.96,2.13,2.18,2.51,3.64.37,1.47.56,3.91.56,7.33v27.44h-11.92v-27.11c0-2.69-.09-4.34-.27-4.93-.18-.59-.67-.88-1.47-.88-.85,0-1.38.34-1.59,1.02-.22.68-.32,2.49-.32,5.44v26.46h-11.92v-39.15h12.12Z"/></g></svg>