<?xml version="1.0" encoding="UTF-8"?><svg id="Layer_2" xmlns="http://www.w3.org/2000/svg" viewBox="0 0 212.54 254.15"><defs><style>.cls-1{fill:#ff4545;}.cls-2{fill:#45bdff;}.cls-3{stroke-width:.37px;}.cls-3,.cls-4,.cls-5{stroke-miterlimit:10;}.cls-3,.cls-6{fill:#ff4390;}.cls-3,.cls-5{stroke:#000;}.cls-4{fill:#db45ff;stroke:#1a1a1a;stroke-width:.51px;}.cls-7{fill:#f2f2f2;}.cls-5{fill:#45ff52;stroke-width:.49px;}.cls-8{fill:#1a1a1a;}</style></defs><g id="GamePlay"><rect class="cls-7" x=".19" y=".19" width="181.16" height="253.78" rx="10.04" ry="10.04"/><path d="M171.31.37c5.43,0,9.85,4.42,9.85,9.85v233.7c0,5.43-4.42,9.85-9.85,9.85H10.23c-5.43,0-9.85-4.42-9.85-9.85V10.23C.37,4.79,4.79.37,10.23.37h161.08M171.31,0H10.23C4.58,0,0,4.58,0,10.23v233.7c0,5.65,4.58,10.23,10.23,10.23h161.08c5.65,0,10.23-4.58,10.23-10.23V10.23c0-5.65-4.58-10.23-10.23-10.23h0Z"/><rect class="cls-7" x="5.19" y=".19" width="181.16" height="253.78" rx="10.04" ry="10.04"/><path d="M176.31.37c5.43,0,9.85,4.42,9.85,9.85v233.7c0,5.43-4.42,9.85-9.85,9.85H15.23c-5.43,0-9.85-4.42-9.85-9.85V10.23C5.37,4.79,9.79.37,15.23.37h161.08M176.31,0H15.23C9.58,0,5,4.58,5,10.23v233.7c0,5.65,4.58,10.23,10.23,10.23h161.08c5.65,0,10.23-4.58,10.23-10.23V10.23c0-5.65-4.58-10.23-10.23-10.23h0Z"/><rect class="cls-7" x="9.19" y=".19" width="181.16" height="253.78" rx="10.04" ry="10.04"/><path d="M180.31.37c5.43,0,9.85,4.42,9.85,9.85v233.7c0,5.43-4.42,9.85-9.85,9.85H19.23c-5.43,0-9.85-4.42-9.85-9.85V10.23C9.37,4.79,13.79.37,19.23.37h161.08M180.31,0H19.23c-5.65,0-10.23,4.58-10.23,10.23v233.7c0,5.65,4.58,10.23,10.23,10.23h161.08c5.65,0,10.23-4.58,10.23-10.23V10.23c0-5.65-4.58-10.23-10.23-10.23h0Z"/><rect class="cls-7" x="14.19" y=".19" width="181.16" height="253.78" rx="10.04" ry="10.04"/><path d="M185.31.37c5.43,0,9.85,4.42,9.85,9.85v233.7c0,5.43-4.42,9.85-9.85,9.85H24.23c-5.43,0-9.85-4.42-9.85-9.85V10.23C14.37,4.79,18.79.37,24.23.37h161.08M185.31,0H24.23c-5.65,0-10.23,4.58-10.23,10.23v233.7c0,5.65,4.58,10.23,10.23,10.23h161.08c5.65,0,10.23-4.58,10.23-10.23V10.23c0-5.65-4.58-10.23-10.23-10.23h0Z"/><rect class="cls-7" x="20.19" y=".19" width="181.16" height="253.78" rx="10.04" ry="10.04"/><path d="M191.31.37c5.43,0,9.85,4.42,9.85,9.85v233.7c0,5.43-4.42,9.85-9.85,9.85H30.23c-5.43,0-9.85-4.42-9.85-9.85V10.23C20.37,4.79,24.79.37,30.23.37h161.08M191.31,0H30.23c-5.65,0-10.23,4.58-10.23,10.23v233.7c0,5.65,4.58,10.23,10.23,10.23h161.08c5.65,0,10.23-4.58,10.23-10.23V10.23c0-5.65-4.58-10.23-10.23-10.23h0Z"/><rect class="cls-7" x="25.19" y=".19" width="181.16" height="253.78" rx="10.04" ry="10.04"/><path d="M196.31.37c5.43,0,9.85,4.42,9.85,9.85v233.7c0,5.43-4.42,9.85-9.85,9.85H35.23c-5.43,0-9.85-4.42-9.85-9.85V10.23C25.37,4.79,29.79.37,35.23.37h161.08M196.31,0H35.23c-5.65,0-10.23,4.58-10.23,10.23v233.7c0,5.65,4.58,10.23,10.23,10.23h161.08c5.65,0,10.23-4.58,10.23-10.23V10.23c0-5.65-4.58-10.23-10.23-10.23h0Z"/><rect class="cls-7" x="31.19" y=".19" width="181.16" height="253.78" rx="10.04" ry="10.04"/><path d="M202.31.37c5.43,0,9.85,4.42,9.85,9.85v233.7c0,5.43-4.42,9.85-9.85,9.85H41.23c-5.43,0-9.85-4.42-9.85-9.85V10.23c0-5.43,4.42-9.85,9.85-9.85h161.08M202.31,0H41.23c-5.65,0-10.23,4.58-10.23,10.23v233.7c0,5.65,4.58,10.23,10.23,10.23h161.08c5.65,0,10.23-4.58,10.23-10.23V10.23c0-5.65-4.58-10.23-10.23-10.23h0Z"/><rect class="cls-8" x="53.58" y="16" width="137.69" height="192.77" rx="10.23" ry="10.23"/><path class="cls-6" d="M118.43,162.34c-24.35-1.92-44.06-21.65-45.96-46h4.54c1.9,22.14,19.28,39.54,41.42,41.46v4.54ZM126.54,157.79c22.08-1.97,39.41-19.37,41.3-41.45h4.54c-1.9,24.3-21.55,44.02-45.84,45.99v-4.54ZM167.83,108.22c-1.99-21.97-19.31-39.28-41.29-41.24v-4.54c24.19,1.97,43.84,21.59,45.83,45.78h-4.54ZM72.49,108.22c1.99-24.24,21.69-43.87,45.94-45.79v4.54c-22.04,1.91-39.41,19.22-41.4,41.25h-4.54Z"/><path d="M118.24,62.64v4.17c-21.99,1.99-39.31,19.25-41.38,41.23h-4.16c1.01-11.69,6.14-22.69,14.49-31.01,8.34-8.32,19.36-13.42,31.06-14.39M126.73,62.65c11.67,1,22.66,6.11,30.98,14.42,8.32,8.31,13.44,19.3,14.45,30.97h-4.17c-2.06-21.93-19.34-39.18-41.27-41.22v-4.16M172.18,116.53c-.96,11.72-6.07,22.75-14.4,31.11-8.33,8.36-19.34,13.49-31.05,14.49v-4.16c22.03-2.05,39.32-19.4,41.29-41.44h4.16M76.84,116.53c1.98,22.1,19.31,39.45,41.4,41.45v4.17c-11.74-.98-22.78-6.1-31.13-14.46-8.36-8.36-13.47-19.41-14.44-31.15h4.16M118.62,62.23c-24.69,1.85-44.4,21.51-46.33,46.18h4.91c1.91-21.96,19.44-39.44,41.42-41.26v-4.92h0ZM126.36,62.24v4.91c21.93,1.88,39.4,19.34,41.3,41.26h4.92c-1.92-24.63-21.58-44.27-46.22-46.17h0ZM172.59,116.15h-4.91c-1.81,22.02-19.32,39.58-41.32,41.47v4.91c24.7-1.91,44.4-21.66,46.23-46.38h0ZM77.18,116.15h-4.91c1.83,24.76,21.59,44.54,46.35,46.39v-4.92c-22.05-1.83-39.62-19.42-41.43-41.48h0Z"/><path class="cls-6" d="M118.43,151.66c-18.64-1.87-33.42-16.68-35.28-35.32h5.46c1.79,15.53,14.3,28.04,29.82,29.86v5.46ZM126.54,146.18c15.46-1.87,27.91-14.38,29.7-29.85h5.46c-1.85,18.58-16.59,33.38-35.16,35.31v-5.46ZM156.22,108.22c-1.9-15.6-14.07-27.75-29.68-29.63v-5.46c18.47,1.91,33.2,16.62,35.14,35.09h-5.46ZM83.18,108.22c1.94-18.53,16.72-33.24,35.25-35.11v5.46c-15.67,1.83-27.88,13.99-29.79,29.65h-5.46Z"/><path d="M118.24,73.33v5.09c-15.37,1.88-27.82,14.26-29.77,29.63h-5.09c2.01-18.27,16.58-32.78,34.86-34.71M126.73,73.34c18.22,1.98,32.74,16.48,34.74,34.7h-5.09c-1.97-15.56-14.1-27.67-29.66-29.61v-5.09M161.5,116.53c-1.92,18.33-16.45,32.92-34.77,34.91v-5.09c15.41-1.94,27.82-14.4,29.68-29.82h5.08M88.45,116.53c1.87,15.48,14.32,27.95,29.8,29.84v5.09c-18.38-1.95-32.96-16.54-34.88-34.93h5.08M118.62,72.91c-18.81,1.79-33.78,16.72-35.65,35.5h5.84c1.82-15.58,14.22-27.92,29.81-29.67v-5.84h0ZM126.36,72.92v5.84c15.54,1.79,27.88,14.12,29.7,29.65h5.84c-1.86-18.74-16.78-33.65-35.53-35.49h0ZM161.91,116.15h-5.83c-1.73,15.64-14.11,28.06-29.72,29.87v5.84c18.82-1.85,33.78-16.86,35.55-35.7h0ZM88.78,116.15h-5.83c1.78,18.88,16.79,33.92,35.67,35.71v-5.84c-15.67-1.75-28.1-14.2-29.84-29.88h0Z"/><path class="cls-6" d="M118.43,140.94c-12.76-1.77-22.82-11.84-24.56-24.6h5.31c1.67,9.88,9.37,17.61,19.25,19.29v5.31ZM126.54,135.61c9.82-1.73,17.48-9.45,19.14-19.27h5.31c-1.74,12.71-11.75,22.78-24.45,24.59v-5.32ZM145.64,108.22c-1.73-9.72-9.38-17.35-19.1-19.06v-5.32c12.6,1.8,22.59,11.78,24.42,24.38h-5.32ZM93.9,108.22c1.83-12.65,11.87-22.64,24.53-24.39v5.31c-9.78,1.67-17.48,9.31-19.21,19.08h-5.32Z"/><path d="M118.24,84.05v4.94c-9.74,1.73-17.39,9.33-19.18,19.05h-4.95c1.89-12.39,11.72-22.17,24.13-23.99M126.73,84.07c12.34,1.86,22.13,11.63,24.01,23.97h-4.94c-1.79-9.67-9.39-17.26-19.07-19.03v-4.94M150.78,116.53c-1.8,12.45-11.6,22.31-24.05,24.19v-4.94c9.77-1.79,17.39-9.46,19.11-19.24h4.94M99.02,116.53c1.72,9.84,9.39,17.52,19.22,19.26v4.94c-12.5-1.83-22.35-11.7-24.16-24.2h4.94M118.62,83.62c-12.93,1.7-23.17,11.9-24.94,24.79h5.69c1.67-9.79,9.43-17.5,19.24-19.11v-5.69h0ZM126.36,83.63v5.69c9.76,1.65,17.46,9.34,19.13,19.09h5.69c-1.76-12.86-11.95-23.04-24.82-24.78h0ZM151.21,116.15h-5.69c-1.59,9.85-9.34,17.64-19.16,19.3v5.69c12.94-1.75,23.17-12.03,24.85-24.99h0ZM99.34,116.15h-5.69c1.68,13,11.97,23.3,24.97,25.01v-5.69c-9.88-1.62-17.68-9.43-19.28-19.32h0Z"/><path class="cls-6" d="M122.43,131.06c-10.3,0-18.67-8.38-18.67-18.67,0-8.75,6.16-16.39,14.68-18.25v3.87c0,.32.05.64.15.94-5.97,1.71-10.12,7.2-10.12,13.43,0,7.7,6.27,13.97,13.97,13.97s13.97-6.27,13.97-13.97c0-6.18-4.11-11.66-10.01-13.4.1-.31.16-.64.16-.97v-3.85c8.45,1.9,14.56,9.53,14.56,18.22,0,10.3-8.38,18.67-18.67,18.67Z"/><path d="M118.24,94.38v3.64c0,.28.03.55.1.81-5.95,1.79-10.07,7.31-10.07,13.56,0,7.81,6.35,14.16,14.16,14.16s14.16-6.35,14.16-14.16c0-6.2-4.08-11.7-9.97-13.53.07-.27.11-.56.11-.85v-3.61c8.25,1.97,14.19,9.46,14.19,17.98,0,10.19-8.29,18.49-18.49,18.49s-18.49-8.29-18.49-18.49c0-8.59,5.99-16.09,14.3-18.01M118.62,93.91c-8.59,1.76-15.05,9.37-15.05,18.48,0,10.42,8.44,18.86,18.86,18.86s18.86-8.44,18.86-18.86c0-9.07-6.4-16.64-14.93-18.45v4.08c0,.39-.07.76-.21,1.1,5.81,1.62,10.07,6.95,10.07,13.28,0,7.61-6.17,13.78-13.78,13.78s-13.78-6.17-13.78-13.78c0-6.36,4.31-11.72,10.18-13.3-.13-.33-.2-.69-.2-1.07v-4.1h0Z"/><path class="cls-6" d="M122.43,122.6c-5.63,0-10.21-4.58-10.21-10.21s4.58-10.21,10.21-10.21,10.21,4.58,10.21,10.21-4.58,10.21-10.21,10.21ZM122.43,108.09c-2.37,0-4.3,1.93-4.3,4.3s1.93,4.3,4.3,4.3,4.3-1.93,4.3-4.3-1.93-4.3-4.3-4.3Z"/><path d="M122.43,102.36c5.53,0,10.02,4.5,10.02,10.02s-4.5,10.02-10.02,10.02-10.02-4.5-10.02-10.02,4.5-10.02,10.02-10.02M122.43,116.87c2.47,0,4.49-2.01,4.49-4.49s-2.01-4.49-4.49-4.49-4.49,2.01-4.49,4.49,2.01,4.49,4.49,4.49M122.43,101.99c-5.74,0-10.4,4.66-10.4,10.4s4.66,10.4,10.4,10.4,10.4-4.66,10.4-10.4-4.66-10.4-10.4-10.4h0ZM122.43,116.5c-2.27,0-4.11-1.84-4.11-4.11s1.84-4.11,4.11-4.11,4.11,1.84,4.11,4.11-1.84,4.11-4.11,4.11h0Z"/><rect class="cls-3" x="119.58" y="134.29" width="5.8" height="66.26" rx="2.9" ry="2.9"/><rect class="cls-3" x="119.58" y="31.76" width="5.8" height="66.26" rx="2.9" ry="2.9"/><rect class="cls-3" x="159.85" y="94.27" width="5.8" height="36.03" rx="2.9" ry="2.9" transform="translate(50.47 275.03) rotate(-90)"/><rect class="cls-3" x="78.84" y="94.27" width="5.8" height="36.03" rx="2.9" ry="2.9" transform="translate(-30.54 194.02) rotate(-90)"/><path class="cls-5" d="M80.68,22.27c-1.88,0-12.91,17.3-12.91,24.43,0,6.58,4.92,12,11.28,12.8v8.5h3.26v-8.5c6.36-.8,11.28-6.23,11.28-12.8,0-7.13-11.15-24.43-12.91-24.43ZM86.65,44.71l-5.6,5.6v9.55c0,.21-.17.38-.38.38s-.38-.17-.38-.38v-9.55l-5.6-5.6c-.15-.15-.15-.38,0-.53.07-.07.17-.11.27-.11s.19.04.27.11l5.07,5.07v-23.71c0-.21.17-.38.38-.38.1,0,.2.04.27.11.07.07.11.16.11.27v23.71l5.07-5.07c.07-.07.17-.11.27-.11s.19.04.27.11c.15.15.15.38,0,.53Z"/><path class="cls-2" d="M80.98,169.89c-6.47,0-11.71,5.24-11.71,11.71s5.24,11.71,11.71,11.71,11.71-5.24,11.71-11.71-5.24-11.71-11.71-11.71ZM80.98,190.83c-5.09,0-9.22-4.13-9.22-9.22s4.13-9.22,9.22-9.22,9.22,4.13,9.22,9.22-4.13,9.22-9.22,9.22Z"/><path class="cls-2" d="M101.29,179.49c-.25-2.44-.93-4.74-1.96-6.85-1.33.43-2.66.86-3.99,1.29,0-.02-.02-.03-.03-.05,0-.02-.02-.03-.02-.05-.53-.97-1.15-1.87-1.85-2.71l-.03-.04s-.02-.03-.04-.04c1-.95,2.01-1.91,3.01-2.86-1.28-1.46-2.76-2.74-4.4-3.79-.37-.23-.74-.46-1.12-.67-.17.22-.35.45-.52.67-.69.89-1.37,1.77-2.06,2.66-.02,0-.03-.02-.05-.02-.02,0-.03-.02-.05-.02-1.23-.61-2.54-1.06-3.91-1.35-.02,0-.03,0-.05-.01-.02,0-.03,0-.05,0,.03-.42.06-.83.1-1.25.07-.97.15-1.94.22-2.91-1.14-.2-2.31-.3-3.51-.3s-2.37.1-3.51.3c.07.97.15,1.94.22,2.91.03.41.06.83.1,1.25-.02,0-.04,0-.05,0-.02,0-.04,0-.05.01-1.38.28-2.7.74-3.93,1.35-.02,0-.03.02-.05.02-.02,0-.03.02-.05.02-.69-.89-1.38-1.78-2.07-2.67-.17-.22-.34-.44-.51-.66-.38.21-.74.43-1.1.66-1.65,1.05-3.13,2.34-4.41,3.8,1,.95,2.01,1.91,3.01,2.86-.01.01-.02.03-.03.04-.01.01-.02.03-.03.04-.7.83-1.32,1.74-1.84,2.7,0,.02-.02.03-.03.05,0,.02-.02.03-.02.05-1.33-.43-2.66-.86-4-1.29-1.03,2.1-1.71,4.41-1.96,6.85,1.37.22,2.73.44,4.1.67,0,.02,0,.04,0,.05,0,.02,0,.04,0,.05-.04.44-.05.89-.05,1.34,0,.71.05,1.41.13,2.1,0,.02,0,.04,0,.05,0,.02,0,.04,0,.05-1.33.42-2.66.85-4,1.27.41,2.4,1.24,4.66,2.42,6.7,1.24-.62,2.48-1.23,3.72-1.85,0,.02.02.03.03.05,0,.02.02.03.03.05.59.97,1.27,1.87,2.04,2.69.01.01.02.03.04.04.01.01.02.03.04.04-.82,1.13-1.64,2.27-2.47,3.4,1.7,1.67,3.7,3.04,5.9,4.03.63-1.23,1.27-2.46,1.9-3.69.02,0,.03.01.05.02.02,0,.03.01.05.02.96.41,1.98.73,3.03.95.02,0,.04,0,.05.01.02,0,.03,0,.05.01-.1,1.39-.21,2.77-.32,4.16,1.16.2,2.35.31,3.56.31s2.4-.11,3.56-.31c-.1-1.39-.21-2.77-.32-4.16.02,0,.04,0,.05-.01.02,0,.04,0,.05-.01,1.04-.22,2.05-.54,3.01-.94.02,0,.03-.01.05-.02.02,0,.03-.01.05-.02.63,1.23,1.27,2.46,1.9,3.69,2.21-.99,4.2-2.36,5.91-4.03-.82-1.13-1.65-2.27-2.47-3.4.01-.01.02-.03.04-.04.01-.01.03-.03.04-.04.77-.82,1.46-1.73,2.05-2.7,0-.02.02-.03.03-.05,0-.02.02-.03.03-.05,1.24.62,2.48,1.23,3.72,1.85,1.18-2.04,2.01-4.3,2.42-6.7h0c-1.33-.43-2.66-.85-4-1.28,0-.02,0-.04,0-.05s0-.04,0-.05c.09-.69.13-1.39.13-2.11,0-.45-.02-.9-.05-1.34,0-.02,0-.04,0-.05,0-.02,0-.04,0-.05,1.37-.22,2.73-.44,4.1-.67h0ZM80.98,194.98c-7.38,0-13.37-5.99-13.37-13.37s5.99-13.37,13.37-13.37,13.37,5.99,13.37,13.37-5.99,13.37-13.37,13.37Z"/><path class="cls-4" d="M151.73,172.07l-7.1-2.76c.98-.7,3.3-2.3,5.01-3.09.04-.02.08-.04.13-.06l1.96,5.9Z"/><path class="cls-4" d="M155.71,184.13s0,.09-.01.14l-.24,1.03-3.18,13.52c-.07.29-.35.47-.64.41-.76-.16-1.5-.42-2.19-.79-1.53-.82-3.35-2.08-4.69-3.87-2.31-3.08-2.91-8.05-2.74-11.9.13-2.96,1.33-9.06,1.87-11.72.07-.33.42-.52.73-.4l7.34,2.85c.15.06.27.18.32.34l3.41,10.24c.02.05.03.1.03.16h0Z"/><path class="cls-4" d="M182.15,177.58l-25.32,6.19-3.24-9.74-.47-1.42-2.29-6.87c1.8-.65,3.6-.86,5.91-.79,2.83.09,13.44,3.42,17.98,5.82,3.34,1.76,6.16,5.15,7.43,6.81Z"/><path class="cls-4" d="M156.71,184.99l.49-.12,25.67-6.28c.11.25.85,2.03.93,4.16.09,2.31.26,8.99-.09,10.62s-1.97,2.31-2.4,2.65-7.28,1.63-8.99,1.8c-1.37.14-13.46,1.14-18.3,1.55-.23.02-.47.03-.7.03l3.1-13.2.29-1.21Z"/><path class="cls-1" d="M173.08,36.92c-1.33-9.8-6.22-16.01-12.04-16.01-6.85,0-12.4,8.57-12.4,21.47,0,6.23,1.29,11.15,3.4,14.58,2.33,5.68,7.92,9.69,14.44,9.69,8.61,0,15.59-6.98,15.59-15.59,0-6.25-3.68-11.64-8.99-14.13ZM166.47,64.83c-3.03,0-5.82-.97-8.1-2.63-2.32-1.69-4.09-4.08-5-6.86-1.02-1.86-1.81-4.18-2.27-6.93-.31-1.84-.48-3.88-.48-6.09,0-11.69,4.66-19.46,10.41-19.46,4.66,0,8.6,5.09,9.93,13.25.11.65.19,1.32.27,2,.72.27,1.41.59,2.07.97,4.15,2.37,6.95,6.85,6.95,11.97,0,7.61-6.17,13.78-13.78,13.78Z"/><path class="cls-1" d="M173.42,41.06c-.64-.44-1.32-.83-2.03-1.14-.59-.26-1.21-.48-1.84-.64-.05-.58-.11-1.15-.19-1.71-.09-.65-.2-1.29-.32-1.9-1.29-6.39-4.38-10.89-7.99-10.89-4.77,0-8.63,7.86-8.63,17.55,0,.64.02,1.27.05,1.89h0c.08,1.47.24,2.88.49,4.21h0c.41,2.26,1.05,4.3,1.85,6.01.64,2.23,1.91,4.2,3.61,5.71,1.15,1.02,2.49,1.83,3.96,2.35h0c1.28.46,2.67.71,4.11.71,6.72,0,12.16-5.44,12.16-12.16,0-4.14-2.06-7.79-5.22-9.98ZM169.73,53.11c-.32.11-.66.18-1.01.18-.31,0-.61-.05-.89-.13-1.2-.38-2.07-1.5-2.07-2.82,0-1.63,1.32-2.96,2.96-2.96.2,0,.39.02.58.06.67.13,1.25.49,1.68.99.44.52.7,1.18.7,1.91,0,1.28-.81,2.37-1.94,2.78Z"/><path class="cls-1" d="M170.53,50.33c0,.12-.01.25-.04.37,0,0,0,0,0,.01-.01.05-.03.11-.04.16,0,0,0,0,0,0,0,0,0,0,0,0s0,0,0,0,0,0,0,0h0c-.24.72-.92,1.25-1.72,1.25-.17,0-.34-.02-.5-.07-.76-.22-1.31-.91-1.31-1.74,0-1,.81-1.81,1.81-1.81.13,0,.27.01.39.04.81.18,1.42.9,1.42,1.77Z"/><rect class="cls-8" x="62.77" y="215.78" width="118.37" height="28.17" rx="10.23" ry="10.23"/><path class="cls-3" d="M82.36,220.78h4.69c1.27,0,2.24.1,2.92.3.68.2,1.19.49,1.54.86.34.38.58.83.7,1.37s.18,1.36.18,2.48v1.56c0,1.14-.12,1.98-.35,2.5-.24.52-.67.93-1.3,1.21s-1.45.42-2.47.42h-1.25v7.21h-4.66v-17.9ZM87.02,223.85v4.56c.13,0,.25.01.34.01.43,0,.72-.1.89-.32.17-.21.25-.65.25-1.31v-1.47c0-.61-.1-1.01-.29-1.19-.19-.18-.59-.28-1.19-.28Z"/><path class="cls-3" d="M98.2,220.78v2.33h-4.6v-2.33h4.6ZM98.2,224.01v14.67h-4.6v-14.67h4.6Z"/><path class="cls-3" d="M109.42,224.01l-1.81,5.84,2.36,8.83h-4.3l-1.39-6.4v6.4h-4.47v-17.9h4.47v7.52s1.4-4.29,1.4-4.29h3.75Z"/><path class="cls-3" d="M120.73,229.17v3.59c0,1.32-.07,2.29-.2,2.9-.13.62-.42,1.19-.85,1.73-.44.53-.99.93-1.68,1.18-.68.25-1.47.38-2.35.38-.99,0-1.82-.11-2.51-.33-.69-.22-1.22-.55-1.6-.98-.38-.44-.65-.97-.81-1.59-.16-.62-.24-1.56-.24-2.8v-3.76c0-1.36.15-2.43.44-3.2.29-.77.83-1.38,1.59-1.85.77-.46,1.75-.7,2.94-.7,1,0,1.86.15,2.58.45.72.3,1.27.69,1.66,1.17.39.48.66.97.8,1.48.14.51.22,1.28.22,2.32ZM116.27,228.06c0-.75-.04-1.23-.12-1.42-.08-.2-.25-.29-.52-.29s-.44.1-.53.29c-.09.2-.13.67-.13,1.42v6.62c0,.69.04,1.14.13,1.35s.26.32.52.32.44-.1.53-.29c.08-.19.13-.6.13-1.24v-6.77Z"/><path class="cls-3" d="M126.62,224.01l-.08,1.4c.35-.55.76-.97,1.24-1.25.48-.28,1.02-.42,1.64-.42,1.19,0,2.13.55,2.82,1.66.38-.55.8-.97,1.27-1.25.47-.28,1-.42,1.57-.42.76,0,1.39.18,1.89.55s.82.82.96,1.35c.14.53.21,1.4.21,2.6v10.43h-4.34v-9.57c0-1.25-.04-2.03-.13-2.33-.08-.3-.28-.45-.59-.45s-.52.15-.61.44c-.09.29-.14,1.07-.14,2.33v9.57h-4.34v-9.32c0-1.44-.04-2.3-.1-2.59-.07-.29-.26-.43-.58-.43-.2,0-.37.08-.51.23-.14.15-.22.34-.23.55-.01.22-.02.68-.02,1.39v10.17h-4.34v-14.67h4.41Z"/><path class="cls-3" d="M149.77,229.17v3.59c0,1.32-.07,2.29-.2,2.9-.13.62-.42,1.19-.85,1.73-.44.53-.99.93-1.68,1.18-.68.25-1.47.38-2.35.38-.99,0-1.82-.11-2.51-.33-.69-.22-1.22-.55-1.6-.98-.38-.44-.65-.97-.81-1.59-.16-.62-.24-1.56-.24-2.8v-3.76c0-1.36.15-2.43.44-3.2.29-.77.83-1.38,1.59-1.85.77-.46,1.75-.7,2.94-.7,1,0,1.86.15,2.58.45.72.3,1.27.69,1.66,1.17.39.48.66.97.8,1.48.14.51.22,1.28.22,2.32ZM145.31,228.06c0-.75-.04-1.23-.12-1.42-.08-.2-.25-.29-.52-.29s-.44.1-.53.29c-.09.2-.13.67-.13,1.42v6.62c0,.69.04,1.14.13,1.35s.26.32.52.32.44-.1.53-.29c.08-.19.13-.6.13-1.24v-6.77Z"/><path class="cls-3" d="M155.79,224.01l-.08,1.35c.32-.54.72-.94,1.19-1.21.47-.27,1.01-.4,1.62-.4.77,0,1.39.18,1.88.54.49.36.8.82.94,1.37.14.55.21,1.47.21,2.75v10.28h-4.47v-10.16c0-1.01-.03-1.63-.1-1.85-.07-.22-.25-.33-.55-.33-.32,0-.52.13-.6.38-.08.25-.12.93-.12,2.04v9.92h-4.47v-14.67h4.55Z"/></g></svg>