<?xml version="1.0" encoding="UTF-8"?><svg id="Layer_2" xmlns="http://www.w3.org/2000/svg" viewBox="0 0 267.8 366"><defs><style>.cls-1{fill:#ff4545;stroke:#000;stroke-miterlimit:10;}</style></defs><g id="Misc"><path class="cls-1" d="M195.58,128.28C184.99,50.03,145.97.5,99.46.5,44.81.5.5,68.87.5,171.86c0,49.7,10.31,88.98,27.13,116.34,18.59,45.35,63.17,77.3,115.22,77.3,68.74,0,124.46-55.72,124.46-124.46,0-49.88-29.34-92.91-71.72-112.77ZM142.85,351.04c-24.15,0-46.47-7.78-64.61-20.96-18.51-13.45-32.66-32.53-39.93-54.73-8.17-14.81-14.43-33.35-18.14-55.32-2.48-14.7-3.82-30.94-3.82-48.63C16.34,78.06,53.56,16.1,99.46,16.1c37.19,0,68.67,40.66,79.29,105.73.85,5.17,1.55,10.5,2.12,15.96,5.75,2.12,11.28,4.7,16.54,7.71,33.12,18.95,55.43,54.64,55.43,95.53,0,60.75-49.24,109.99-109.99,109.99Z"/><path class="cls-1" d="M198.25,161.35c-5.07-3.54-10.5-6.6-16.22-9.13-4.72-2.09-9.64-3.81-14.72-5.12-.4-4.64-.91-9.2-1.52-13.66-.72-5.2-1.58-10.27-2.58-15.2-10.29-51-34.96-86.91-63.75-86.91-38.05,0-68.89,62.71-68.89,140.06,0,5.09.14,10.12.4,15.06h0c.61,11.71,1.93,22.97,3.87,33.63h0c3.29,18.04,8.36,34.32,14.77,47.98,5.15,17.83,15.28,33.54,28.78,45.54,9.16,8.14,19.87,14.57,31.63,18.79h0c10.25,3.68,21.3,5.69,32.82,5.69,53.6,0,97.05-43.45,97.05-97.05,0-33.01-16.47-62.16-41.65-79.69ZM168.81,257.51c-2.52.91-5.24,1.42-8.08,1.42-2.47,0-4.84-.38-7.07-1.07-9.58-3.01-16.53-11.96-16.53-22.52,0-13.03,10.57-23.6,23.6-23.6,1.58,0,3.14.16,4.64.46,5.32,1.06,9.99,3.91,13.37,7.89,3.49,4.11,5.59,9.43,5.59,15.25,0,10.19-6.47,18.88-15.52,22.18Z"/><path class="cls-1" d="M175.2,235.33c0,1-.1,1.97-.3,2.92,0,.03-.02.06-.02.09-.11.43-.22.87-.33,1.29,0,.02-.02.04-.02.06,0,.02,0,.03-.02.05s0,.03-.02.05,0,.04-.02.05v.02c-1.9,5.77-7.33,9.94-13.74,9.94-1.39,0-2.73-.2-4-.57-6.04-1.73-10.46-7.29-10.46-13.89,0-7.99,6.48-14.46,14.46-14.46,1.07,0,2.12.11,3.12.34,6.49,1.42,11.34,7.21,11.34,14.12Z"/></g></svg>