<?xml version="1.0" encoding="UTF-8"?><svg id="Layer_2" xmlns="http://www.w3.org/2000/svg" viewBox="0 0 207 366"><defs><style>.cls-1{fill:#45ff52;stroke:#000;stroke-miterlimit:10;}</style></defs><g id="Misc"><path class="cls-1" d="M103.5.5C88.5.5.5,138.61.5,195.5c0,52.49,39.25,95.8,90,102.18v67.82h26v-67.82c50.75-6.38,90-49.69,90-102.18C206.5,138.61,117.5.5,103.5.5ZM151.19,179.55l-44.69,44.69v76.26c0,1.66-1.34,3-3,3s-3-1.34-3-3v-76.26l-44.69-44.69c-1.17-1.17-1.17-3.07,0-4.24.59-.59,1.35-.88,2.12-.88s1.53.29,2.12.88l40.45,40.45V26.5c0-1.66,1.34-3,3-3,.83,0,1.58.34,2.12.88.54.54.88,1.29.88,2.12v189.26l40.45-40.45c.59-.59,1.35-.88,2.12-.88s1.53.29,2.12.88c1.17,1.17,1.17,3.07,0,4.24Z"/></g></svg>