<?xml version="1.0" encoding="UTF-8"?><svg id="Layer_2" xmlns="http://www.w3.org/2000/svg" viewBox="0 0 465.39 382.74"><defs><style>.cls-1{fill:#db45ff;stroke:#000;stroke-miterlimit:10;}</style></defs><g id="Misc"><path class="cls-1" d="M108.34,79.56L29.72,49.04c10.87-7.72,36.54-25.43,55.48-34.18.46-.22.94-.43,1.4-.64l21.73,65.33Z"/><path class="cls-1" d="M152.49,213.1c.01.52-.04,1.05-.16,1.55l-2.67,11.37-35.21,149.75c-.75,3.18-3.89,5.21-7.09,4.55-8.42-1.74-16.59-4.67-24.24-8.75-16.96-9.06-37.15-23.09-51.96-42.82C5.54,294.61-1.09,239.61.8,196.93c1.46-32.8,14.68-100.33,20.72-129.82.75-3.67,4.62-5.77,8.11-4.42l81.28,31.54c1.68.65,2.98,2.02,3.55,3.73l37.72,113.41c.19.56.29,1.15.31,1.74h0Z"/><path class="cls-1" d="M445.31,140.58l-280.43,68.59-35.89-107.92-5.23-15.7L98.45,9.42C118.37,2.27,138.28-.14,163.91.64c31.29.95,148.88,37.93,199.14,64.48,36.95,19.53,68.27,56.99,82.26,75.45Z"/><path class="cls-1" d="M163.55,222.63l5.38-1.32,284.36-69.56c1.22,2.81,9.4,22.44,10.28,46.12.95,25.6,2.84,99.57-.95,117.59-3.79,18.02-21.81,25.6-26.55,29.4s-80.6,18.02-99.57,19.91c-15.13,1.52-149.1,12.68-202.71,17.14-2.59.22-5.18.32-7.77.32l34.38-146.19,3.16-13.42Z"/></g></svg>